<?xml version="1.0" standalone="no"?>
<!DOCTYPE svg PUBLIC "-//W3C//DTD SVG 20010904//EN"
 "http://www.w3.org/TR/2001/REC-SVG-20010904/DTD/svg10.dtd">
<svg version="1.0" xmlns="http://www.w3.org/2000/svg"
 width="203.000000pt" height="628.000000pt" viewBox="0 0 203.000000 628.000000"
 preserveAspectRatio="xMidYMid meet">

<g transform="translate(0.000000,628.000000) scale(0.100000,-0.100000)"
fill="#ff0033" stroke="none">
<path d="M815 6226 c-9 -18 -38 -54 -65 -81 -28 -27 -50 -55 -50 -62 0 -6 -7
-16 -16 -21 -30 -17 -39 -134 -20 -283 17 -136 44 -219 83 -250 14 -13 16 -11
11 13 -3 18 -1 25 8 21 7 -2 15 -11 18 -19 3 -8 11 -14 18 -14 9 0 13 -18 13
-58 0 -57 0 -57 33 -60 32 -3 47 -32 16 -32 -8 0 -12 5 -9 10 4 6 -11 10 -37
10 -31 0 -39 3 -28 10 13 9 13 10 0 10 -19 -1 -50 -24 -50 -38 0 -6 21 -14 48
-18 l47 -7 -50 -23 c-27 -13 -63 -23 -78 -23 -25 -1 -26 -3 -17 -21 12 -21 4
-25 -20 -10 -10 6 -21 4 -35 -9 -20 -18 -83 -54 -197 -114 -42 -21 -58 -36
-59 -51 -1 -17 -2 -17 -6 -3 -2 9 -8 17 -12 17 -11 0 -41 -35 -41 -48 0 -6 -5
-14 -12 -18 -8 -5 -9 0 -6 14 4 12 3 22 0 22 -21 -1 -35 -24 -42 -71 -4 -30
-8 -42 -9 -27 0 15 -5 29 -10 32 -13 8 -34 -74 -32 -126 1 -28 -3 -48 -9 -48
-6 0 -15 -10 -20 -22 -5 -14 -9 -17 -9 -8 -1 9 3 20 8 25 6 6 13 37 16 70 8
74 -6 65 -17 -10 -14 -96 -26 -159 -34 -187 -5 -15 -6 -63 -3 -105 6 -79 2
-105 -11 -83 -4 6 -5 -23 -2 -66 3 -56 2 -75 -7 -70 -12 8 -13 -7 -1 -44 7
-22 8 -22 10 -5 2 11 6 -10 10 -47 5 -39 15 -74 24 -84 9 -8 16 -24 16 -34 0
-10 5 -22 10 -25 6 -3 10 -13 10 -21 0 -9 -5 -12 -11 -8 -9 5 -10 -4 -4 -32 4
-21 8 -39 8 -40 1 -1 11 -6 22 -13 17 -9 13 -10 -22 -5 l-41 6 -7 -68 c-3 -38
-8 -82 -10 -99 -4 -27 -3 -27 6 5 25 81 28 85 23 30 -3 -30 -10 -71 -15 -90
-19 -75 -2 -262 45 -491 25 -121 38 -219 36 -287 -1 -47 2 -62 12 -60 7 2 12
-1 11 -7 -1 -5 -8 -48 -17 -94 -24 -123 -21 -208 7 -262 15 -28 31 -45 45 -47
25 -4 28 -18 8 -41 -18 -21 -36 -261 -25 -332 11 -66 25 -83 58 -66 13 7 33
24 44 39 l21 28 -37 70 c-44 84 -46 107 -13 116 33 8 50 53 42 108 l-7 45 33
3 c25 2 34 8 36 26 3 18 -2 23 -27 28 -35 7 -40 19 -11 27 18 5 20 14 20 90 0
65 -4 88 -16 98 -37 30 -63 116 -69 233 -3 37 -9 73 -14 80 -10 12 -9 29 9
201 5 55 14 165 19 245 5 80 15 166 22 193 11 41 10 69 -10 220 -12 94 -29
197 -37 227 -28 107 -45 235 -49 359 -2 69 -9 167 -14 216 -13 112 -13 120 4
70 l13 -40 1 55 c1 43 5 58 20 67 23 14 35 5 19 -14 -7 -9 -12 -103 -15 -283
-3 -221 -1 -280 11 -327 14 -53 46 -221 60 -318 16 -106 22 -230 13 -261 -9
-30 -39 -425 -33 -432 3 -3 6 10 7 29 1 31 2 32 8 9 4 -14 4 -41 0 -60 -9 -40
-3 -55 7 -16 3 14 10 26 15 26 16 0 10 -44 -11 -77 -27 -45 -37 -128 -18 -151
17 -19 27 -43 38 -89 6 -25 5 -33 -6 -33 -27 0 -16 -63 21 -120 19 -30 35 -51
35 -46 0 4 11 -6 25 -23 14 -16 41 -35 59 -41 19 -6 42 -20 52 -31 16 -17 16
-22 4 -30 -11 -8 -9 -9 11 -5 20 4 28 0 43 -26 11 -17 14 -28 8 -25 -5 4 -13
0 -16 -9 -9 -23 -8 -27 9 -20 10 3 15 -1 15 -13 0 -16 -7 -17 -57 -14 -32 3
-60 7 -63 9 -8 8 23 24 48 24 17 0 22 5 20 17 -2 9 -9 18 -16 21 -7 2 -10 -2
-6 -12 5 -13 -2 -16 -35 -16 -23 0 -41 -3 -41 -7 1 -26 33 -117 59 -165 30
-57 64 -198 54 -225 -4 -11 0 -11 21 -3 19 7 26 6 26 -3 0 -6 3 -22 6 -35 5
-18 2 -22 -15 -22 -11 0 -28 -11 -37 -25 -9 -14 -23 -25 -30 -25 -8 0 -14 -4
-14 -10 0 -5 5 -10 10 -10 17 0 101 -42 96 -48 -3 -3 -12 0 -19 7 -10 8 -22 8
-38 2 l-24 -10 27 0 c14 -1 28 -7 31 -13 3 -10 9 -10 28 -1 13 6 42 14 64 16
22 3 49 8 60 12 15 5 12 -1 -10 -20 -36 -32 -142 -85 -170 -85 -25 -1 -50 -20
-50 -40 0 -8 -15 -19 -33 -25 -26 -7 -31 -13 -26 -30 10 -31 44 -52 77 -46 5
1 36 -5 70 -14 46 -11 71 -13 97 -5 44 13 45 13 31 -4 -17 -20 -130 -59 -155
-53 -11 3 -32 9 -46 13 -20 5 -23 4 -13 -7 10 -10 9 -17 -5 -32 -17 -19 -16
-20 13 -13 23 5 26 4 13 -4 -9 -5 -25 -9 -35 -8 -41 3 -63 -3 -63 -17 0 -11 7
-14 23 -10 12 3 56 -1 97 -9 41 -8 78 -12 82 -10 4 3 8 0 8 -5 0 -6 -16 -21
-35 -33 -19 -13 -35 -28 -35 -35 0 -6 -13 -14 -29 -18 -16 -3 -34 -12 -40 -19
-17 -20 63 -40 107 -27 58 17 37 -16 -28 -44 -49 -20 -83 -45 -62 -45 7 0 12
4 12 9 0 5 10 7 22 3 12 -3 17 -7 10 -10 -6 -2 -12 -8 -12 -14 0 -7 19 -9 50
-6 52 5 69 -7 25 -18 -13 -3 -29 -12 -36 -20 -6 -8 -24 -14 -40 -14 -16 0 -29
-4 -29 -10 0 -5 7 -10 16 -10 14 0 14 -3 3 -16 -10 -13 -10 -17 1 -24 10 -6 5
-9 -15 -12 -37 -4 -46 -28 -10 -28 38 0 21 -20 -18 -21 l-32 -1 35 -13 35 -13
-30 -1 -30 -1 27 -14 c15 -8 35 -16 45 -19 10 -3 -9 -6 -42 -7 l-60 -2 55 -13
c30 -7 48 -13 40 -14 -13 -1 -13 -3 -1 -10 11 -7 9 -10 -10 -13 l-24 -4 27
-12 c34 -14 42 -28 21 -36 -14 -6 -14 -8 3 -21 18 -14 18 -16 1 -29 -17 -13
-17 -14 0 -21 17 -6 17 -7 -1 -21 -19 -14 -19 -14 -1 -14 27 0 6 -17 -25 -22
-14 -1 -23 -7 -20 -13 3 -5 15 -8 28 -7 25 4 27 -1 12 -29 -8 -14 -7 -19 2
-19 8 0 14 -15 15 -41 0 -23 6 -46 12 -52 6 -6 11 -21 11 -33 0 -12 7 -24 15
-28 11 -4 14 -13 9 -30 -3 -14 -2 -31 2 -38 13 -20 13 -58 1 -58 -8 0 -7 -3 2
-9 10 -7 6 -11 -17 -15 -38 -9 -70 -42 -55 -57 8 -8 24 -6 57 6 25 10 55 15
68 12 13 -4 30 -2 38 3 24 15 30 1 12 -30 -20 -34 -68 -43 -129 -25 -19 6 -23
4 -23 -15 0 -14 5 -20 13 -17 8 3 36 0 63 -5 39 -9 45 -12 29 -19 -11 -4 -39
-8 -62 -8 -24 -1 -43 -5 -43 -11 0 -5 3 -9 8 -9 4 1 25 1 47 0 38 -1 39 -2 16
-14 -13 -6 -25 -19 -27 -27 -1 -8 -6 -24 -10 -34 -7 -18 -3 -19 87 -13 61 3
82 3 59 -3 -40 -10 -74 -12 -147 -11 -40 1 -58 7 -82 27 -17 14 -31 21 -31 16
0 -6 -3 -17 -6 -25 -4 -12 0 -14 15 -10 12 3 21 1 21 -6 0 -6 5 -11 11 -11 7
0 18 -8 26 -17 8 -10 12 -12 8 -5 -4 7 0 12 9 12 20 0 21 -24 1 -44 -8 -8 -15
-19 -15 -25 0 -6 -5 -11 -11 -11 -6 0 -9 7 -6 15 5 11 1 12 -19 4 -14 -5 -30
-7 -35 -3 -21 13 -7 -26 16 -45 37 -29 77 -34 154 -21 74 12 121 36 145 72 32
49 45 227 33 468 -15 304 -18 432 -19 695 0 154 2 307 6 340 3 33 15 157 26
275 12 122 31 260 46 320 13 58 37 163 52 234 15 71 32 131 37 133 6 2 16 -21
23 -49 13 -50 78 -351 89 -411 3 -15 9 -27 12 -27 16 0 19 13 8 31 -13 21 -3
36 15 22 14 -11 58 -24 58 -17 0 3 -12 16 -28 29 l-27 25 28 25 c15 14 37 25
47 25 12 0 17 5 14 14 -3 8 6 19 23 28 29 14 29 14 25 -14 -2 -16 -11 -28 -19
-28 -8 0 -11 -5 -8 -10 10 -17 -5 -50 -23 -50 -14 0 -15 -2 -2 -10 8 -5 12
-10 10 -12 -3 -2 -28 -23 -57 -46 -35 -29 -53 -38 -57 -30 -3 7 -2 -7 1 -32 3
-25 10 -47 15 -48 4 -2 5 -8 2 -13 -5 -9 12 -136 23 -169 4 -12 7 -11 13 5 4
11 4 22 -1 25 -14 9 2 52 17 46 8 -3 14 -1 14 5 0 6 7 9 15 6 8 -4 17 -2 20 3
8 13 -27 68 -52 79 -11 5 -24 19 -28 30 -3 12 -11 21 -16 21 -5 0 -9 4 -9 9 0
5 26 13 58 16 31 4 75 16 97 27 67 33 105 55 123 71 9 8 27 18 39 21 11 4 24
13 27 21 8 23 36 18 36 -6 0 -32 -66 -113 -122 -149 -26 -17 -46 -36 -42 -41
3 -5 -9 -12 -26 -15 -24 -5 -32 -13 -37 -35 -3 -16 -9 -27 -13 -24 -3 2 -7 -2
-7 -10 0 -8 7 -15 16 -16 10 0 12 -2 4 -6 -16 -6 -17 -24 -2 -20 6 1 13 -5 14
-13 2 -8 6 -23 10 -32 5 -11 3 -18 -5 -18 -10 0 -10 -3 -1 -14 10 -12 7 -18
-13 -31 -26 -17 -37 -65 -15 -65 8 0 8 -5 -1 -15 -10 -12 -10 -18 0 -30 13
-16 50 -21 50 -6 0 5 39 8 88 7 48 0 99 3 115 8 42 13 35 -16 -13 -49 -30 -21
-54 -28 -95 -30 -30 -2 -55 1 -55 5 0 4 -10 5 -23 3 -12 -3 -50 2 -85 10 -52
12 -62 12 -62 1 0 -8 6 -14 13 -15 59 -4 157 -41 157 -59 0 -6 -12 -10 -27
-10 -16 0 -34 -4 -41 -9 -7 -4 13 -6 45 -3 42 3 62 10 73 24 22 26 33 11 13
-18 -11 -17 -25 -24 -49 -24 -18 0 -36 -5 -39 -10 -3 -5 -18 -10 -33 -11 -26
0 -25 -1 8 -14 19 -7 30 -14 23 -14 -6 -1 -21 -17 -34 -37 -12 -20 -30 -44
-40 -53 -18 -17 -16 -17 52 -13 50 3 69 0 65 -7 -4 -6 -2 -11 3 -11 6 0 11 5
11 10 0 6 9 10 20 10 29 0 25 -13 -11 -34 -21 -13 -41 -16 -67 -12 -37 6 -28
-1 23 -19 13 -5 15 -9 8 -12 -25 -9 -12 -23 21 -23 19 0 38 -5 41 -11 8 -12
-64 -7 -100 7 -14 5 -17 4 -10 -4 6 -5 30 -17 55 -26 l45 -15 -47 -1 c-26 0
-49 -4 -52 -9 -8 -12 38 -22 103 -23 32 0 49 -4 45 -10 -6 -9 -95 -5 -164 8
-18 4 -16 1 10 -11 19 -9 66 -19 103 -22 83 -7 76 -25 -11 -27 -33 -1 -58 -4
-55 -8 2 -5 -8 -8 -23 -8 -39 0 -23 -10 38 -26 l53 -14 -60 4 c-57 4 -59 3
-30 -10 17 -7 38 -13 48 -14 28 0 9 -20 -19 -20 -25 0 -33 -23 -12 -36 8 -5 9
-2 5 9 -4 11 -1 17 8 17 8 0 16 -4 16 -10 5 -36 2 -46 -18 -55 -21 -9 -39 -55
-22 -55 5 0 9 3 9 8 0 4 21 8 48 9 46 2 46 2 18 -11 -23 -11 -25 -14 -11 -19
25 -10 70 -8 101 3 24 9 25 9 14 -5 -13 -16 -98 -20 -134 -6 -23 9 -71 -12
-80 -36 -4 -9 -11 -48 -16 -87 -6 -39 -13 -79 -16 -88 -6 -21 25 -25 56 -8 14
8 29 6 54 -4 33 -14 35 -13 50 9 9 14 16 35 15 47 -1 18 -3 16 -10 -9 -10 -34
-17 -37 -56 -27 -31 9 -29 27 2 22 14 -3 25 -1 25 3 0 5 -4 9 -9 9 -5 0 -11 9
-14 19 -3 15 2 20 22 24 14 3 28 1 29 -4 2 -5 8 -9 13 -9 4 0 6 6 3 14 -3 8 3
16 15 19 25 6 38 -8 16 -17 -8 -3 -14 -9 -13 -13 1 -4 -2 -29 -6 -56 -6 -34
-18 -57 -42 -81 -36 -36 -43 -52 -19 -42 8 3 15 1 15 -4 0 -5 -12 -10 -27 -12
-29 -4 -26 -6 25 -24 15 -6 15 -7 -3 -14 -11 -4 -23 -6 -26 -4 -4 2 -9 -19
-13 -46 -4 -33 -13 -54 -27 -63 l-20 -14 21 -6 c11 -3 20 -13 20 -22 0 -9 -6
-15 -12 -12 -7 2 -22 0 -33 -6 -19 -10 -19 -10 0 -18 46 -18 163 -9 234 17 39
15 71 29 72 33 0 3 2 22 4 41 2 19 12 65 24 101 20 63 21 81 16 370 -3 167 -9
340 -15 384 -5 44 -12 121 -15 170 -3 50 -8 128 -10 175 -5 84 6 292 24 440 5
41 13 162 17 268 6 155 10 195 21 199 8 3 19 0 23 -7 11 -18 87 -14 117 5 36
24 76 91 84 143 7 43 -3 176 -31 442 -6 52 -14 214 -20 360 -11 307 -25 434
-65 591 -6 22 -2 27 35 44 41 18 57 47 47 83 -27 96 -57 218 -67 267 -6 33
-17 83 -25 110 -8 28 -23 94 -35 149 -21 92 -32 108 -43 61 -3 -11 -5 0 -6 25
0 35 2 42 10 30 10 -13 10 -13 6 0 -2 8 -12 42 -22 75 l-18 60 -12 -60 c-13
-64 -35 -115 -48 -115 -5 0 -6 13 -2 29 5 25 3 30 -16 33 -35 5 -33 23 5 36
41 15 52 51 26 85 -17 22 -16 52 2 41 5 -3 4 3 -3 14 -14 23 -68 57 -76 48 -3
-3 2 -8 11 -12 15 -6 12 -11 -16 -35 -18 -15 -42 -28 -53 -28 -11 0 -14 3 -7
6 24 9 20 17 -70 125 -13 15 -30 28 -38 29 -10 0 -11 2 -2 6 20 8 14 26 -8 20
-11 -3 -20 -1 -20 5 0 5 -8 7 -18 3 -11 -3 -32 1 -48 10 -24 12 -26 15 -9 16
14 1 10 4 -12 11 -26 9 -35 7 -48 -6 -9 -9 -26 -16 -38 -16 -39 0 -50 -14 -27
-35 11 -10 20 -23 20 -29 0 -6 10 -17 22 -25 35 -22 6 -29 -156 -43 l-147 -12
-27 -57 c-28 -61 -52 -76 -52 -34 0 14 5 25 12 25 6 0 8 3 5 7 -4 3 3 17 15
30 18 19 19 23 5 23 -9 0 -17 5 -17 10 0 6 4 10 9 10 10 0 11 5 39 103 11 37
17 67 13 67 -3 0 -35 -40 -70 -90 -35 -49 -70 -90 -77 -90 -18 0 -18 16 -1 27
24 14 58 71 47 78 -5 3 -10 1 -10 -4 0 -26 -18 -7 -30 32 -8 28 -15 37 -19 27
-6 -17 -24 -20 -37 -7 -5 4 3 18 16 30 23 21 34 22 168 22 116 0 139 -2 125
-12 -28 -21 -1 -15 36 8 19 11 54 21 78 22 23 1 43 3 43 5 0 9 -41 82 -50 87
-21 13 -11 87 19 140 55 98 65 151 66 355 l0 185 -34 50 c-43 61 -66 82 -111
102 -61 26 -90 33 -90 20 0 -9 -2 -9 -8 -1 -4 7 -34 11 -77 10 -38 -1 -85 1
-103 5 -29 6 -33 4 -47 -25z m60 4 c-7 -11 -45 -33 -45 -26 0 2 7 12 16 20 17
18 39 22 29 6z m198 -810 c74 0 90 -14 27 -24 -22 -3 -40 -11 -40 -16 0 -6 3
-9 8 -7 9 3 12 -6 12 -33 0 -11 -5 -20 -11 -20 -6 0 -9 8 -6 19 4 16 -3 20
-45 25 -27 4 -46 11 -43 16 4 6 0 11 -7 11 -7 1 3 5 22 9 l35 7 -32 2 c-18 0
-33 6 -33 12 0 7 9 9 23 5 12 -3 52 -6 90 -6z m102 -20 c3 -5 -1 -10 -9 -10
-9 0 -16 5 -16 10 0 6 4 10 9 10 6 0 13 -4 16 -10z m10 -50 c3 -5 -3 -10 -14
-10 -12 0 -21 5 -21 10 0 6 6 10 14 10 8 0 18 -4 21 -10z m-175 -10 c0 -5 -6
-10 -14 -10 -8 0 -18 5 -21 10 -3 6 3 10 14 10 12 0 21 -4 21 -10z m216 -17
c-7 -7 -26 7 -26 19 0 6 6 6 15 -2 9 -7 13 -15 11 -17z m56 -249 c3 -3 -3 -23
-14 -45 -10 -22 -23 -65 -29 -97 -6 -31 -16 -75 -23 -96 -12 -36 -14 -38 -24
-19 -6 11 -8 23 -5 27 3 3 -2 6 -11 6 -13 0 -17 -6 -13 -20 3 -13 0 -20 -9
-20 -8 0 -14 10 -14 23 0 12 -5 29 -11 37 -8 12 -9 10 -4 -7 7 -25 -11 -33
-62 -29 -27 2 -34 -2 -42 -26 -6 -15 -15 -28 -22 -28 -8 0 -7 5 2 17 12 14 12
17 0 21 -9 3 -10 7 -2 11 8 5 7 12 -2 25 -13 17 -14 17 -30 1 -14 -14 -17 -14
-17 -2 0 9 -3 22 -6 31 -4 10 -1 16 9 16 18 0 27 21 27 59 0 16 9 40 20 54 11
14 20 30 20 36 0 7 31 11 88 12 48 0 96 4 107 9 23 10 59 12 67 4z m-641 -35
c-2 -8 -5 -27 -8 -44 -3 -16 -11 -55 -19 -85 -8 -30 -14 -67 -14 -82 0 -21 -5
-28 -20 -28 -15 0 -21 -9 -26 -40 -4 -22 -11 -43 -15 -46 -9 -5 -6 49 7 149 3
28 1 36 -7 31 -9 -5 -10 0 -6 16 4 15 2 19 -4 13 -21 -21 -30 -144 -34 -460
-1 -182 -6 -337 -10 -343 -4 -7 -9 -78 -12 -158 -6 -243 -19 -180 -19 95 0
142 -2 335 -4 428 -5 165 -6 170 -26 169 -20 0 -22 6 -27 80 -3 44 -2 87 3 96
5 9 7 43 5 77 l-3 61 42 20 c35 17 115 49 166 65 22 8 35 1 31 -14z m196 -9
c-15 -22 -13 -100 5 -157 11 -38 25 -42 38 -10 5 12 9 17 9 11 1 -7 -6 -25
-14 -40 -8 -16 -15 -37 -15 -47 0 -10 -5 -28 -12 -40 -18 -34 -35 -162 -25
-189 9 -23 21 -163 19 -228 -1 -19 4 -38 11 -42 6 -4 12 -25 14 -48 2 -25 -1
-39 -7 -35 -6 3 -10 13 -10 20 0 25 -33 55 -69 61 -30 6 -32 8 -17 19 19 15
29 52 15 60 -5 4 -8 26 -7 51 1 25 -4 50 -10 56 -9 9 -12 7 -12 -9 0 -11 -7
-26 -16 -34 -13 -11 -14 -9 -9 14 4 15 3 27 -2 27 -13 0 -34 -143 -22 -154 15
-16 10 -36 -10 -36 -15 0 -19 10 -24 68 -4 37 -9 87 -13 112 -8 62 -9 70 0
110 5 26 4 31 -3 20 -6 -8 -11 -10 -11 -5 0 6 -2 48 -5 95 -4 83 8 188 26 222
5 10 9 26 9 36 0 26 25 58 34 43 4 -6 12 -9 17 -6 5 4 9 0 9 -7 0 -7 10 5 21
27 25 47 35 55 72 55 26 0 27 -1 14 -20z m596 13 c-7 -2 -19 -2 -25 0 -7 3 -2
5 12 5 14 0 19 -2 13 -5z m-10 -141 c-1 -109 -15 -238 -28 -250 -14 -15 -19
20 -17 131 1 67 7 137 13 155 6 18 9 42 6 52 -4 16 4 26 23 29 3 1 4 -52 3
-117z m27 86 c0 -18 -2 -20 -9 -8 -6 8 -7 18 -5 22 9 14 14 9 14 -14z m-210
-168 c0 -11 -4 -20 -9 -20 -5 0 -7 9 -4 20 3 11 7 20 9 20 2 0 4 -9 4 -20z
m-1044 -208 c-2 -1 -11 28 -19 65 -9 39 -11 69 -6 71 5 2 10 11 10 20 1 10 5
-21 10 -68 4 -46 7 -86 5 -88z m1520 106 c-9 -12 -16 -19 -16 -15 0 11 24 47
28 42 2 -2 -3 -14 -12 -27z m-1176 -62 c0 -3 -4 -8 -10 -11 -5 -3 -10 -1 -10
4 0 6 5 11 10 11 6 0 10 -2 10 -4z m1237 -98 c-3 -7 -5 -2 -5 12 0 14 2 19 5
13 2 -7 2 -19 0 -25z m-1380 -30 c-3 -8 -6 -5 -6 6 -1 11 2 17 5 13 3 -3 4
-12 1 -19z m610 -30 c-3 -7 -5 -2 -5 12 0 14 2 19 5 13 2 -7 2 -19 0 -25z
m-577 -27 c0 -6 -4 -13 -10 -16 -5 -3 -10 1 -10 9 0 9 5 16 10 16 6 0 10 -4
10 -9z m1323 -23 c-3 -18 -14 -52 -25 -76 -10 -24 -18 -54 -18 -67 0 -12 -7
-28 -15 -35 -10 -9 -15 -9 -15 -1 0 6 3 11 8 11 4 0 8 11 8 25 1 14 -2 25 -7
25 -16 0 -9 39 10 57 10 10 24 35 32 56 16 46 31 49 22 5z m-695 -76 c7 -2 19
2 27 8 18 15 19 7 3 -20 -10 -15 -9 -24 2 -44 11 -22 11 -31 -5 -66 -10 -22
-21 -40 -25 -40 -15 0 -23 37 -21 98 2 34 -2 68 -7 75 -11 13 -16 42 -12 67 1
8 7 -5 14 -29 6 -25 17 -46 24 -49z m-26 -174 c-7 -7 -12 -8 -12 -2 0 14 12
26 19 19 2 -3 -1 -11 -7 -17z m-37 -68 c3 -5 1 -10 -4 -10 -6 0 -11 5 -11 10
0 6 2 10 4 10 3 0 8 -4 11 -10z m612 -98 c13 -13 25 -39 27 -56 25 -176 47
-270 114 -501 43 -147 94 -375 98 -436 3 -55 -26 -84 -32 -31 -10 92 -44 199
-103 327 -34 71 -51 137 -51 194 0 38 -8 73 -24 107 -51 110 -85 237 -93 353
-5 61 -6 115 -3 117 3 3 14 -7 25 -22 11 -15 30 -38 42 -52z m-581 -12 c24
-13 35 -60 14 -60 -5 0 -10 -5 -10 -11 0 -5 4 -8 9 -5 5 3 8 -28 7 -69 0 -41
-5 -75 -9 -75 -5 0 -5 -5 -1 -11 4 -8 0 -9 -15 -4 -18 5 -21 3 -19 -22 1 -15
7 -31 13 -35 6 -5 5 -8 -3 -8 -9 0 -10 -5 -3 -17 14 -28 23 -143 10 -143 -5 0
-7 -5 -4 -10 8 -12 -55 -81 -67 -74 -4 3 -1 12 7 20 8 9 15 21 14 27 0 8 -2 8
-6 -1 -2 -6 -9 -10 -13 -7 -5 3 -4 17 2 31 9 20 9 27 -1 33 -9 6 -10 11 -2 15
8 5 8 13 1 27 -15 27 -10 109 7 109 21 0 15 27 -7 33 -11 3 -19 9 -18 14 1 4
-4 19 -12 33 -14 26 -22 150 -9 150 4 0 10 -8 13 -17 4 -15 4 -14 4 2 -1 11 2
44 6 73 6 43 11 51 21 42 8 -6 15 -21 18 -33 2 -16 6 -12 12 18 8 34 10 36 13
14 2 -15 13 -32 28 -39z m371 -212 c-3 -8 -6 -5 -6 6 -1 11 2 17 5 13 3 -3 4
-12 1 -19z m-939 -107 c-5 -14 -8 -34 -7 -45 3 -39 -1 -56 -11 -56 -7 0 -9 13
-6 33 3 17 8 55 12 82 5 38 8 45 14 30 4 -11 3 -31 -2 -44z m967 -14 c3 -28 9
-60 11 -69 3 -10 1 -18 -5 -18 -6 0 -11 9 -11 19 0 11 -7 27 -17 36 -13 13
-13 19 -4 25 9 5 10 13 3 26 -5 11 -7 25 -5 32 9 24 21 1 28 -51z m15 -107 c0
-5 -4 -10 -10 -10 -5 0 -10 5 -10 10 0 6 5 10 10 10 6 0 10 -4 10 -10z m-985
-86 c-6 -67 -5 -76 8 -71 11 4 15 0 14 -13 -1 -10 -5 -16 -11 -13 -6 4 -6 -1
-1 -13 5 -10 7 -35 6 -55 -1 -24 4 -39 13 -42 8 -3 16 -29 21 -64 7 -59 44
-140 81 -179 15 -15 29 -20 47 -17 16 3 27 1 27 -6 0 -6 -8 -11 -17 -12 -12
-1 -10 -4 7 -9 18 -6 20 -9 8 -10 -10 -1 -22 -3 -27 -4 -18 -2 -22 -14 -15
-40 3 -14 10 -23 15 -20 5 3 9 1 9 -5 0 -5 -6 -12 -12 -14 -7 -3 2 -8 20 -12
32 -7 45 -25 18 -25 -10 0 -13 -8 -11 -22 3 -13 7 -36 10 -53 4 -19 3 -25 -3
-17 -5 7 -16 10 -25 6 -10 -3 -24 -1 -31 5 -8 7 -17 8 -20 3 -8 -14 -53 -2
-72 19 -9 10 -23 51 -31 91 -7 39 -21 81 -31 92 -9 10 -11 16 -4 12 11 -6 12
6 9 61 -3 37 -8 79 -11 93 -18 80 -18 79 3 73 25 -6 28 12 7 52 -15 29 -20
148 -10 233 10 81 17 61 9 -24z m511 -116 c-3 -13 -6 -31 -6 -40 0 -10 -3 -18
-8 -18 -4 0 -6 18 -4 40 2 22 9 40 14 40 6 0 8 -10 4 -22z m-549 -10 c-3 -8
-6 -5 -6 6 -1 11 2 17 5 13 3 -3 4 -12 1 -19z m441 -98 c10 -17 10 -23 -2 -36
-8 -8 -18 -34 -21 -58 -7 -46 -44 -96 -72 -96 -12 0 -13 3 -3 15 6 8 9 19 5
25 -11 18 -25 11 -25 -14 0 -14 -4 -28 -10 -31 -5 -3 -10 -1 -10 4 0 6 -11 11
-25 11 -14 0 -25 5 -25 10 0 6 7 10 15 10 8 0 15 5 15 10 0 6 -9 10 -20 10
-11 0 -20 5 -20 10 0 6 9 10 20 10 11 0 21 5 21 10 1 6 2 16 3 22 0 7 9 14 18
16 17 3 19 -13 4 -37 -6 -9 -5 -12 2 -7 6 3 14 1 17 -4 11 -19 44 19 51 59 15
81 36 102 62 61z m67 0 c3 -5 2 -10 -4 -10 -5 0 -13 5 -16 10 -3 6 -2 10 4 10
5 0 13 -4 16 -10z m17 -82 c-7 -15 -18 -28 -23 -28 -12 0 -12 27 1 35 15 9 12
25 -5 25 -8 0 -15 4 -15 8 0 19 14 20 34 5 21 -16 21 -19 8 -45z m-60 18 c4
-17 1 -23 -9 -19 -15 6 -15 6 -7 27 8 22 11 20 16 -8z m-97 4 c-3 -5 -11 -10
-16 -10 -6 0 -7 5 -4 10 3 6 11 10 16 10 6 0 7 -4 4 -10z m205 -4 c0 -3 -4 -8
-10 -11 -5 -3 -10 -1 -10 4 0 6 5 11 10 11 6 0 10 -2 10 -4z m20 -31 c0 -8 -4
-15 -10 -15 -5 0 -10 7 -10 15 0 8 5 15 10 15 6 0 10 -7 10 -15z m-327 -2 c-7
-2 -19 -2 -25 0 -7 3 -2 5 12 5 14 0 19 -2 13 -5z m354 -45 c-3 -8 -6 -5 -6 6
-1 11 2 17 5 13 3 -3 4 -12 1 -19z m28 -65 c-4 -32 -8 -83 -9 -114 -1 -50 1
-55 16 -46 11 7 14 16 9 25 -5 10 -1 22 11 34 11 11 18 28 15 38 -6 25 31 23
39 -2 3 -10 11 -15 20 -11 7 3 14 1 14 -5 0 -5 -8 -12 -18 -14 -18 -5 -21 -11
-25 -63 -2 -22 -7 -25 -39 -25 -37 0 -66 -19 -31 -21 14 0 14 -2 -4 -9 -13 -6
-23 -18 -23 -30 0 -15 -6 -20 -27 -19 -16 0 -22 3 -15 6 10 4 10 8 1 19 -9 11
-8 14 5 14 32 0 12 36 -24 43 -18 3 -13 5 14 6 43 1 40 16 -4 24 -24 4 -24 4
3 6 15 0 27 4 28 9 0 4 2 16 4 27 2 11 9 53 16 93 15 86 35 99 24 15z m-422
34 c3 -8 1 -20 -4 -28 -7 -11 -9 -11 -9 -1 0 7 -4 10 -10 7 -5 -3 -10 -4 -10
-1 0 2 -3 11 -6 20 -4 11 0 16 14 16 11 0 22 -6 25 -13z m-206 -54 c-3 -10 -5
-4 -5 12 0 17 2 24 5 18 2 -7 2 -21 0 -30z m268 17 c28 0 37 -11 24 -30 -6
-10 -9 -11 -9 -2 0 7 -13 12 -30 12 -33 0 -33 0 -23 26 4 11 8 13 11 6 2 -7
14 -12 27 -12z m98 -17 c-7 -3 -13 -9 -13 -14 0 -6 4 -8 9 -5 5 4 12 -7 16
-24 7 -32 -10 -100 -26 -100 -13 0 -11 7 7 35 10 15 12 25 5 25 -6 0 -11 -7
-11 -15 0 -8 -9 -15 -20 -15 -10 0 -23 -7 -28 -17 -8 -13 -9 -11 -9 11 0 21 3
25 17 21 14 -4 20 1 25 25 5 22 11 30 21 26 9 -3 12 -1 9 4 -3 6 -13 10 -21
10 -17 0 -19 31 -2 48 9 9 15 9 23 1 7 -8 6 -13 -2 -16z m411 -13 c-16 -16
-35 -30 -43 -30 -8 0 3 13 25 30 50 38 55 38 18 0z m-459 -48 c-3 -4 -10 0
-15 7 -6 11 -9 10 -13 -5 -4 -17 -5 -16 -6 3 0 12 5 23 12 26 13 5 32 -21 22
-31z m490 9 c-8 -26 -21 -27 -21 -2 0 11 4 17 8 15 4 -3 8 0 8 7 0 7 3 10 6 6
3 -3 3 -15 -1 -26z m175 15 c0 -2 -7 -7 -16 -10 -8 -3 -12 -2 -9 4 6 10 25 14
25 6z m-456 -33 c4 -8 -2 -12 -16 -9 -12 1 -24 8 -26 14 -5 15 36 11 42 -5z
m46 -13 c0 -5 -5 -10 -11 -10 -5 0 -7 5 -4 10 3 6 8 10 11 10 2 0 4 -4 4 -10z
m-550 -30 c0 -5 -2 -10 -4 -10 -3 0 -8 5 -11 10 -3 6 -1 10 4 10 6 0 11 -4 11
-10z m775 -20 c3 -5 -1 -10 -10 -10 -9 0 -13 5 -10 10 3 6 8 10 10 10 2 0 7
-4 10 -10z m2 -26 c-3 -3 -12 -4 -19 -1 -8 3 -5 6 6 6 11 1 17 -2 13 -5z m197
-3 c3 -4 -6 -6 -19 -3 -14 2 -25 6 -25 8 0 8 39 4 44 -5z m-675 -28 c10 -19 9
-23 -4 -23 -10 0 -15 9 -15 27 0 29 2 29 19 -4z m976 -23 c3 -6 -1 -7 -9 -4
-18 7 -21 14 -7 14 6 0 13 -4 16 -10z m-295 -20 c0 -5 -5 -10 -11 -10 -5 0 -7
5 -4 10 3 6 8 10 11 10 2 0 4 -4 4 -10z m-10 -34 c0 -11 -19 -15 -25 -6 -3 5
1 10 9 10 9 0 16 -2 16 -4z m-1071 -83 c-1 -43 -2 -45 -9 -18 -11 44 -11 65 0
65 6 0 9 -21 9 -47z m1388 -20 c-2 -16 -4 -5 -4 22 0 28 2 40 4 28 2 -13 2
-35 0 -50z m147 49 c3 -5 7 -31 10 -59 l5 -51 -54 -28 c-30 -15 -55 -31 -55
-36 0 -18 -28 -7 -33 14 -8 28 -1 38 27 38 32 0 44 17 47 70 1 25 4 48 6 53 6
10 41 9 47 -1z m-1611 -37 c4 -8 2 -17 -3 -20 -6 -4 -10 3 -10 14 0 25 6 27
13 6z m1283 -143 c-9 -11 -52 -55 -95 -100 -43 -44 -82 -87 -85 -94 -5 -10 -7
-10 -12 0 -3 6 -23 12 -45 12 -25 0 -46 7 -58 19 -20 20 -19 20 65 60 47 23
93 41 102 42 9 0 42 17 72 39 60 42 83 50 56 22z m133 -13 c-19 -11 -24 -3 -8
14 8 9 16 11 18 5 2 -6 -3 -14 -10 -19z m-33 -56 c-10 -10 -19 5 -10 18 6 11
8 11 12 0 2 -7 1 -15 -2 -18z m4 -23 c0 -5 -5 -10 -11 -10 -5 0 -7 5 -4 10 3
6 8 10 11 10 2 0 4 -4 4 -10z m-23 -42 c-3 -8 -6 -5 -6 6 -1 11 2 17 5 13 3
-3 4 -12 1 -19z m-7 -78 c0 -5 -2 -10 -4 -10 -3 0 -8 5 -11 10 -3 6 -1 10 4
10 6 0 11 -4 11 -10z m-871 -275 c2 -3 0 -10 -6 -16 -14 -14 -63 0 -63 18 0
12 7 14 32 9 17 -3 34 -8 37 -11z m521 -99 c0 -2 -7 -6 -15 -10 -8 -3 -15 -1
-15 4 0 6 7 10 15 10 8 0 15 -2 15 -4z m243 -103 c-7 -2 -21 -2 -30 0 -10 3
-4 5 12 5 17 0 24 -2 18 -5z m-770 -29 c32 -4 60 -11 63 -15 9 -15 -106 -10
-136 6 -36 18 -39 29 -7 21 13 -3 49 -8 80 -12z m24 -186 c-5 -16 -105 -16
-133 0 -15 9 -3 11 59 12 59 0 78 -3 74 -12z m26 -115 c-7 -2 -19 -2 -25 0 -7
3 -2 5 12 5 14 0 19 -2 13 -5z m802 -43 c15 -6 9 -9 -25 -9 -34 0 -40 3 -25 9
11 5 22 9 25 9 3 0 14 -4 25 -9z m-90 -40 c3 -5 -4 -10 -17 -11 -23 -1 -23 -1
2 -9 23 -7 22 -8 -10 -8 -19 -1 -53 3 -75 7 l-40 8 30 7 c17 4 35 9 40 11 22
7 64 4 70 -5z m-715 -50 c-8 -5 -19 -10 -25 -10 -5 0 -3 5 5 10 8 5 20 10 25
10 6 0 3 -5 -5 -10z m720 -90 c8 -5 11 -10 5 -10 -5 0 -17 5 -25 10 -8 5 -10
10 -5 10 6 0 17 -5 25 -10z m73 -37 c-13 -2 -35 -2 -50 0 -16 2 -5 4 22 4 28
0 40 -2 28 -4z m-895 -30 c-10 -2 -26 -2 -35 0 -10 3 -2 5 17 5 19 0 27 -2 18
-5z m792 -213 c0 -5 -2 -10 -4 -10 -3 0 -8 5 -11 10 -3 6 -1 10 4 10 6 0 11
-4 11 -10z m105 -50 c-3 -5 -18 -9 -33 -9 l-27 1 30 8 c17 4 31 8 33 9 2 0 0
-3 -3 -9z m-70 -169 c-18 -7 -55 -4 -55 5 0 2 17 4 38 3 28 0 32 -2 17 -8z
m-788 -7 c-3 -3 -12 -4 -19 -1 -8 3 -5 6 6 6 11 1 17 -2 13 -5z m698 -64 c3
-6 -1 -7 -9 -4 -18 7 -21 14 -7 14 6 0 13 -4 16 -10z m-650 -190 c3 -5 24 -10
46 -10 24 0 38 -4 34 -10 -12 -19 -90 -12 -110 10 -18 19 -17 20 3 20 11 0 24
-4 27 -10z m843 -82 c-2 -7 -18 -20 -36 -29 -17 -9 -37 -21 -44 -27 -9 -7 -18
-6 -31 3 -22 16 -15 21 53 47 56 20 63 21 58 6z m-121 -4 c-3 -3 -12 -4 -19
-1 -8 3 -5 6 6 6 11 1 17 -2 13 -5z m-770 -180 c-3 -3 -12 -4 -19 -1 -8 3 -5
6 6 6 11 1 17 -2 13 -5z"/>
<path d="M1120 4934 c0 -19 4 -33 8 -30 8 5 4 66 -4 66 -2 0 -4 -16 -4 -36z"/>
<path d="M1162 4895 c0 -16 2 -22 5 -12 2 9 2 23 0 30 -3 6 -5 -1 -5 -18z"/>
<path d="M1068 4883 c7 -3 16 -2 19 1 4 3 -2 6 -13 5 -11 0 -14 -3 -6 -6z"/>
<path d="M1050 4860 c-13 -9 -13 -10 0 -10 8 0 26 -3 40 -6 24 -6 25 -6 5 9
-24 19 -26 20 -45 7z"/>
<path d="M486 4964 c-4 -20 -5 -38 -2 -41 2 -3 8 11 12 31 3 21 4 39 1 42 -2
3 -8 -11 -11 -32z"/>
<path d="M765 4940 c-10 -11 -23 -20 -29 -20 -6 -1 -21 -22 -33 -48 -26 -56
-43 -212 -24 -212 7 0 9 -5 4 -12 -4 -7 -9 -45 -10 -84 l-2 -72 37 -6 c54 -8
64 7 69 110 4 76 3 86 -11 81 -9 -4 -16 -2 -16 3 0 6 8 10 18 11 16 0 16 1 -1
8 -10 4 -18 11 -18 16 1 6 -3 10 -8 10 -18 0 -23 15 -7 21 9 4 16 17 16 34 0
15 6 33 14 40 8 6 13 17 10 25 -3 7 -1 36 4 64 5 28 8 51 7 51 -1 0 -10 -9
-20 -20z"/>
<path d="M1690 4359 c0 -5 5 -7 10 -4 6 3 10 8 10 11 0 2 -4 4 -10 4 -5 0 -10
-5 -10 -11z"/>
<path d="M985 3970 c-16 -7 -17 -9 -3 -9 9 -1 20 4 23 9 7 11 7 11 -20 0z"/>
<path d="M943 3938 c-6 -13 -7 -43 -4 -68 6 -43 7 -44 20 -22 10 19 10 26 -1
40 -9 11 -10 14 0 8 6 -4 12 -2 12 3 0 6 -5 11 -10 11 -6 0 -8 11 -4 25 8 31
1 32 -13 3z"/>
<path d="M994 3844 c3 -9 6 -18 6 -20 0 -2 7 -4 15 -4 8 0 15 7 15 16 0 8 -4
12 -10 9 -5 -3 -10 -1 -10 4 0 6 -5 11 -11 11 -6 0 -8 -7 -5 -16z"/>
<path d="M570 2860 c0 -16 4 -30 8 -30 5 0 7 14 4 30 -2 17 -6 30 -8 30 -2 0
-4 -13 -4 -30z"/>
<path d="M1125 2991 c-3 -5 -1 -12 5 -16 5 -3 10 1 10 9 0 18 -6 21 -15 7z"/>
<path d="M766 5475 c8 -37 14 -45 14 -19 0 10 -5 26 -10 34 -8 11 -9 7 -4 -15z"/>
<path d="M1208 5273 c7 -3 16 -2 19 1 4 3 -2 6 -13 5 -11 0 -14 -3 -6 -6z"/>
<path d="M1260 5266 c0 -2 7 -9 15 -16 13 -11 14 -10 9 4 -5 14 -24 23 -24 12z"/>
<path d="M905 5230 c-21 -22 -26 -33 -18 -41 9 -9 17 -3 32 22 34 56 29 63
-14 19z"/>
<path d="M1527 5149 c7 -7 15 -10 18 -7 3 3 -2 9 -12 12 -14 6 -15 5 -6 -5z"/>
<path d="M960 5120 c0 -5 5 -10 11 -10 5 0 7 5 4 10 -3 6 -8 10 -11 10 -2 0
-4 -4 -4 -10z"/>
<path d="M40 4110 c8 -5 24 -9 35 -9 l20 0 -20 9 c-11 5 -27 9 -35 9 -13 1
-13 0 0 -9z"/>
<path d="M561 2634 c0 -11 3 -14 6 -6 3 7 2 16 -1 19 -3 4 -6 -2 -5 -13z"/>
<path d="M1310 1920 c-11 -7 -8 -11 13 -19 35 -14 50 -14 42 -1 -11 18 -41 29
-55 20z"/>
<path d="M543 1883 c9 -2 23 -2 30 0 6 3 -1 5 -18 5 -16 0 -22 -2 -12 -5z"/>
<path d="M1250 1815 c0 -8 4 -15 10 -15 5 0 7 7 4 15 -4 8 -8 15 -10 15 -2 0
-4 -7 -4 -15z"/>
<path d="M1283 1773 c9 -2 25 -2 35 0 9 3 1 5 -18 5 -19 0 -27 -2 -17 -5z"/>
<path d="M630 1721 c0 -6 4 -13 10 -16 6 -3 7 1 4 9 -7 18 -14 21 -14 7z"/>
<path d="M1280 1710 c0 -5 9 -9 20 -7 31 5 36 17 7 17 -15 0 -27 -4 -27 -10z"/>
<path d="M1418 1363 c7 -3 16 -2 19 1 4 3 -2 6 -13 5 -11 0 -14 -3 -6 -6z"/>
<path d="M1373 1299 c14 -8 22 -8 30 0 8 8 3 11 -18 11 -26 -1 -28 -2 -12 -11z"/>
<path d="M583 913 c9 -2 23 -2 30 0 6 3 -1 5 -18 5 -16 0 -22 -2 -12 -5z"/>
<path d="M1341 638 c0 -10 -5 -18 -11 -18 -5 0 -10 -11 -10 -25 0 -14 5 -25
10 -25 6 0 10 7 10 15 0 13 7 15 35 9 23 -4 35 -2 35 5 0 6 12 11 26 11 16 0
23 4 18 11 -4 7 -24 9 -55 5 -40 -6 -48 -4 -52 11 -4 17 -5 17 -6 1z"/>
<path d="M648 603 c7 -3 16 -2 19 1 4 3 -2 6 -13 5 -11 0 -14 -3 -6 -6z"/>
<path d="M625 580 c3 -5 18 -10 33 -10 21 0 24 2 12 10 -20 13 -53 13 -45 0z"/>
<path d="M1355 580 c-7 -11 22 -26 32 -16 4 3 -1 6 -11 6 -9 0 -14 5 -11 10 3
6 4 10 1 10 -3 0 -8 -5 -11 -10z"/>
<path d="M1380 499 c0 -5 5 -7 10 -4 6 3 10 8 10 11 0 2 -4 4 -10 4 -5 0 -10
-5 -10 -11z"/>
<path d="M1418 493 c7 -3 16 -2 19 1 4 3 -2 6 -13 5 -11 0 -14 -3 -6 -6z"/>
<path d="M1675 343 c-16 -13 -17 -15 -2 -10 9 4 17 2 17 -3 0 -6 -12 -10 -27
-10 -44 2 -158 -17 -180 -29 -41 -21 -37 -90 4 -74 7 3 13 0 13 -6 0 -7 -24
-9 -77 -4 -64 5 -75 4 -67 -8 5 -8 9 -36 9 -62 0 -96 78 -122 212 -72 38 14
85 37 106 51 34 22 37 28 37 69 0 26 -5 45 -11 45 -7 0 -10 21 -6 65 2 36 2
65 -2 65 -3 0 -15 -8 -26 -17z m-171 -91 c2 -4 -4 -9 -15 -9 -10 -1 -19 2 -19
8 0 11 27 12 34 1z"/>
<path d="M1410 280 c0 -6 7 -10 15 -10 8 0 15 2 15 4 0 2 -7 6 -15 10 -8 3
-15 1 -15 -4z"/>
</g>
</svg>

